<svg width="22" height="22" viewBox="0 0 22 22" fill="none" xmlns="http://www.w3.org/2000/svg">
<path d="M3 5L11 1L19 5M17 9L21 11V19C21 19.5304 20.7893 20.0391 20.4142 20.4142C20.0391 20.7893 19.5304 21 19 21H3C2.46957 21 1.96086 20.7893 1.58579 20.4142C1.21071 20.0391 1 19.5304 1 19V11L5 9" stroke="#000" stroke-width="1.2" stroke-linecap="round" stroke-linejoin="round"/>
<path d="M13 21V17C13 16.4696 12.7893 15.9609 12.4142 15.5858C12.0391 15.2107 11.5304 15 11 15C10.4696 15 9.96086 15.2107 9.58579 15.5858C9.21071 15.9609 9 16.4696 9 17V21M17 4V21M5 4V21" stroke="#000" stroke-width="1.2" stroke-linecap="round" stroke-linejoin="round"/>
<path d="M11 10C12.1046 10 13 9.10457 13 8C13 6.89543 12.1046 6 11 6C9.89543 6 9 6.89543 9 8C9 9.10457 9.89543 10 11 10Z" stroke="#000" stroke-width="1.2" stroke-linecap="round" stroke-linejoin="round"/>
</svg>
