<svg width="24" height="24" viewBox="0 0 24 24" fill="none" xmlns="http://www.w3.org/2000/svg">
<path d="M12 16V13M12 13V10M12 13H9M12 13H15M4 16.8V11.452C4 10.918 4 10.651 4.065 10.402C4.123 10.182 4.217 9.973 4.345 9.785C4.49 9.572 4.691 9.395 5.093 9.044L9.894 4.842C10.64 4.19 11.013 3.864 11.432 3.74C11.802 3.63 12.197 3.63 12.567 3.74C12.987 3.864 13.361 4.19 14.107 4.844L18.907 9.044C19.31 9.396 19.51 9.572 19.655 9.784C19.7828 9.97255 19.8775 10.1816 19.935 10.402C20 10.65 20 10.918 20 11.452V16.804C20 17.922 20 18.481 19.782 18.909C19.5901 19.2849 19.2842 19.5905 18.908 19.782C18.48 20 17.922 20 16.804 20H7.197C6.079 20 5.519 20 5.092 19.782C4.7158 19.5906 4.40986 19.285 4.218 18.909C4 18.48 4 17.92 4 16.8Z" stroke="white" stroke-width="2" stroke-linecap="round" stroke-linejoin="round"/>
</svg>

