<svg width="32" height="32" viewBox="0 0 32 32" fill="none" xmlns="http://www.w3.org/2000/svg">
<path d="M5.33334 8.00015L16 2.66682L26.6667 8.00015M24 13.3335L29.3333 16.0001V26.6668C29.3333 27.3741 29.0524 28.0523 28.5523 28.5524C28.0522 29.0525 27.3739 29.3335 26.6667 29.3335H5.33334C4.62609 29.3335 3.94782 29.0525 3.44772 28.5524C2.94762 28.0523 2.66667 27.3741 2.66667 26.6668V16.0001L8 13.3335" stroke="#AC00E6" stroke-width="1.5" stroke-linecap="round" stroke-linejoin="round"/>
<path d="M18.6667 29.3335V24.0001C18.6667 23.2929 18.3857 22.6146 17.8856 22.1145C17.3855 21.6144 16.7072 21.3335 16 21.3335C15.2928 21.3335 14.6145 21.6144 14.1144 22.1145C13.6143 22.6146 13.3333 23.2929 13.3333 24.0001V29.3335M24 6.66682V29.3335M8 6.66682V29.3335" stroke="#AC00E6" stroke-width="1.5" stroke-linecap="round" stroke-linejoin="round"/>
<path d="M16 14.6668C17.4728 14.6668 18.6667 13.4729 18.6667 12.0001C18.6667 10.5274 17.4728 9.33348 16 9.33348C14.5273 9.33348 13.3333 10.5274 13.3333 12.0001C13.3333 13.4729 14.5273 14.6668 16 14.6668Z" stroke="#AC00E6" stroke-width="1.5" stroke-linecap="round" stroke-linejoin="round"/>
</svg>
