<svg width="49" height="48" viewBox="0 0 49 48" fill="none" xmlns="http://www.w3.org/2000/svg">
<path fill-rule="evenodd" clip-rule="evenodd" d="M14.5 6C16.6217 6 18.6566 6.84286 20.1569 8.34315C21.6571 9.84344 22.5 11.8783 22.5 14V20C22.5 20.5304 22.2893 21.0391 21.9142 21.4142C21.5391 21.7893 21.0304 22 20.5 22H14.5C12.3783 22 10.3434 21.1571 8.84315 19.6569C7.34286 18.1566 6.5 16.1217 6.5 14C6.5 11.8783 7.34286 9.84344 8.84315 8.34315C10.3434 6.84286 12.3783 6 14.5 6ZM18.5 14C18.5 13.2089 18.2654 12.4355 17.8259 11.7777C17.3864 11.1199 16.7616 10.6072 16.0307 10.3045C15.2998 10.0017 14.4956 9.92252 13.7196 10.0769C12.9437 10.2312 12.231 10.6122 11.6716 11.1716C11.1122 11.731 10.7312 12.4437 10.5769 13.2196C10.4225 13.9956 10.5017 14.7998 10.8045 15.5307C11.1072 16.2616 11.6199 16.8864 12.2777 17.3259C12.9355 17.7654 13.7089 18 14.5 18H18.5V14ZM28.5 22C27.9696 22 27.4609 21.7893 27.0858 21.4142C26.7107 21.0391 26.5 20.5304 26.5 20V14C26.5 12.4178 26.9692 10.871 27.8482 9.55544C28.7273 8.23985 29.9767 7.21447 31.4385 6.60897C32.9003 6.00347 34.5089 5.84504 36.0607 6.15372C37.6126 6.4624 39.038 7.22433 40.1569 8.34315C41.2757 9.46197 42.0376 10.8874 42.3463 12.4393C42.655 13.9911 42.4965 15.5997 41.891 17.0615C41.2855 18.5233 40.2602 19.7727 38.9446 20.6518C37.629 21.5308 36.0823 22 34.5 22H28.5ZM30.5 14V18H34.5C35.2911 18 36.0645 17.7654 36.7223 17.3259C37.3801 16.8864 37.8928 16.2616 38.1955 15.5307C38.4983 14.7998 38.5775 13.9956 38.4231 13.2196C38.2688 12.4437 37.8878 11.731 37.3284 11.1716C36.769 10.6122 36.0563 10.2312 35.2804 10.0769C34.5044 9.92252 33.7002 10.0017 32.9693 10.3045C32.2384 10.6072 31.6137 11.1199 31.1741 11.7777C30.7346 12.4355 30.5 13.2089 30.5 14ZM42.5 34C42.5 31.8783 41.6571 29.8434 40.1569 28.3432C38.6566 26.8429 36.6217 26 34.5 26H28.5C27.9696 26 27.4609 26.2107 27.0858 26.5858C26.7107 26.9609 26.5 27.4696 26.5 28V34C26.5 36.1217 27.3429 38.1566 28.8432 39.6569C30.3434 41.1571 32.3783 42 34.5 42C36.6217 42 38.6566 41.1571 40.1569 39.6569C41.6571 38.1566 42.5 36.1217 42.5 34ZM34.5 30C35.2911 30 36.0645 30.2346 36.7223 30.6741C37.3801 31.1137 37.8928 31.7384 38.1955 32.4693C38.4983 33.2002 38.5775 34.0044 38.4231 34.7804C38.2688 35.5563 37.8878 36.269 37.3284 36.8284C36.769 37.3878 36.0563 37.7688 35.2804 37.9231C34.5044 38.0775 33.7002 37.9983 32.9693 37.6955C32.2384 37.3928 31.6137 36.8801 31.1741 36.2223C30.7346 35.5645 30.5 34.7911 30.5 34V30H34.5ZM20.5 26C21.0304 26 21.5391 26.2107 21.9142 26.5858C22.2893 26.9609 22.5 27.4696 22.5 28V34C22.5 35.5823 22.0308 37.129 21.1518 38.4446C20.2727 39.7602 19.0233 40.7855 17.5615 41.391C16.0997 41.9965 14.4911 42.155 12.9393 41.8463C11.3874 41.5376 9.96197 40.7757 8.84315 39.6569C7.72433 38.538 6.9624 37.1126 6.65372 35.5607C6.34504 34.0089 6.50347 32.4003 7.10897 30.9385C7.71447 29.4767 8.73985 28.2273 10.0554 27.3482C11.371 26.4692 12.9178 26 14.5 26H20.5ZM18.5 34V30H14.5C13.7089 30 12.9355 30.2346 12.2777 30.6741C11.6199 31.1137 11.1072 31.7384 10.8045 32.4693C10.5017 33.2002 10.4225 34.0044 10.5769 34.7804C10.7312 35.5563 11.1122 36.269 11.6716 36.8284C12.231 37.3878 12.9437 37.7688 13.7196 37.9231C14.4956 38.0775 15.2998 37.9983 16.0307 37.6955C16.7616 37.3928 17.3864 36.8801 17.8259 36.2223C18.2654 35.5645 18.5 34.7911 18.5 34Z" fill="#AC00E6"/>
</svg>
